<svg xmlns="http://www.w3.org/2000/svg" version="1.1"
  xmlns:xlink="http://www.w3.org/1999/xlink" x="0px" y="0px" viewBox="0 0 130 60">
  <g fill-rule="nonzero">
    <path d="M112.439 31.22h5.766v18.266h5.62V31.22h5.766v-4.918h-17.152zM9.675 26.302H.687v23.184h5.596v-7.292h3.392c5.257 0 8.31-3.344 8.31-7.946 0-4.603-3.053-7.946-8.31-7.946zm-.582 10.974h-2.81V31.22h2.81c2.035 0 3.198 1.114 3.198 3.028s-1.163 3.028-3.198 3.028zM66.023 48.202c0 2.059-1.235 3.221-3.198 3.221-1.72 0-2.93-.678-2.93-.678l-1.09 4.772s2.18.823 5.16.823c4.747 0 7.654-3.488 7.654-7.873V26.301h-5.596v21.9zM10.523 9.974c-1.72-.485-2.81-.848-3.343-1.187-.437-.29-.702-.703-.702-1.188 0-1.09.871-1.914 2.834-1.914 1.866 0 2.859.8 2.859 1.987h5.618c0-4.337-3.633-7.22-8.212-7.22-2.712 0-4.797.582-6.443 1.987C1.679 3.674.807 5.443.807 7.647c0 1.914.582 3.295 1.478 4.264.848.92 2.568 2.01 5.257 2.737 1.937.533 3.319.945 3.948 1.357.654.412.824.775.824 1.26 0 1.041-1.042 1.743-3.125 1.743-1.939 0-2.98-.726-3.053-1.986H.443c0 4.385 3.585 7.195 8.746 7.195 5.014 0 8.794-3.1 8.794-7.049 0-1.454-.267-2.713-1.309-3.997-.919-1.162-2.76-2.204-6.15-3.197zM92.332 15.013h.751l6.468 8.915h6.493l-8.31-11.362 8.31-11.822h-6.542l-6.443 9.351h-.727V.745h-5.596v23.183h5.596zM51.415 24.218c7.17 0 11.822-5.063 11.822-11.87C63.237 5.516 58.562.453 51.44.453c-7.17 0-11.822 5.063-11.822 11.895 0 6.808 4.65 11.87 11.797 11.87zm0-18.532c3.73 0 6.154 2.858 6.154 6.662 0 3.803-2.423 6.662-6.154 6.662-3.706 0-6.129-2.859-6.129-6.662 0-3.804 2.422-6.662 6.13-6.662zM121.888 19.567l1.453 4.36h6.25L121.403.745h-7.607l-7.39 23.184h5.67l1.405-4.361h8.407zm-4.313-12.863l2.664 7.97h-5.208l2.544-7.97zM84.653 23.928L78.742 16.2c3.391-1.042 5.281-3.877 5.281-7.51 0-4.603-3.053-7.946-8.285-7.946h-9.714v23.184h5.596v-7.316h.92l5.62 7.316h6.493zm-9.521-12.21h-3.513V5.661h3.513c2.035 0 3.222 1.115 3.222 3.028 0 1.914-1.187 3.03-3.222 3.03zM101.053 31.22c2.64 0 4.555 1.67 5.257 3.173l4.58-2.64s-2.497-5.742-9.837-5.742c-6.759 0-11.507 5.064-11.507 11.847 0 6.832 4.749 11.895 11.507 11.895 7.34 0 9.836-5.742 9.836-5.742l-4.58-2.64c-.701 1.502-2.615 3.174-5.256 3.174-3.368 0-5.863-2.762-5.863-6.663 0-3.925 2.495-6.662 5.863-6.662z" fill="black"></path>
    <path d="M63.237 37.905c0-6.88-4.651-11.894-11.822-11.894-7.146 0-11.798 5.038-11.798 11.846 0 6.856 4.627 11.895 11.798 11.895 7.22 0 11.822-5.039 11.822-11.847zm-11.822 6.64c-3.706 0-6.129-2.86-6.129-6.663 0-3.804 2.423-6.662 6.13-6.662 3.73 0 6.153 2.858 6.153 6.662 0 3.803-2.423 6.662-6.154 6.662zM37.883 34.248c0-4.603-3.076-7.946-8.31-7.946h-9.278v23.184h5.596v-7.292h.485l5.62 7.292h6.492l-5.911-7.728c3.392-1.041 5.306-3.876 5.306-7.51zm-8.915 3.028h-3.077V31.22h3.077c2.06 0 3.223 1.114 3.223 3.028s-1.164 3.028-3.223 3.028zM38.052 17.362c0-2.35-1.332-4.433-3.755-5.426 1.866-.848 2.98-2.568 2.98-4.555 0-3.851-2.713-6.637-7.777-6.637h-9.253v23.184h10.005c4.869 0 7.8-2.544 7.8-6.566zm-12.21-11.7h3.248c1.792 0 2.495.702 2.495 2.034 0 1.212-.8 2.011-2.375 2.011h-3.367V5.661zm0 13.348v-4.385h3.901c1.648 0 2.616.8 2.616 2.205 0 1.406-.993 2.18-2.616 2.18h-3.9zM74.841 49.486H88.19v-4.917h-7.752v-4.023h6.468v-4.918h-6.468V31.22h7.752v-4.918H74.84z" fill="black"></path>
  </g>
</svg>
